<svg width="179" height="40" viewBox="0 0 179 40" fill="none" xmlns="http://www.w3.org/2000/svg">
<path d="M0 31.3871V34.634C0 37.4171 6.87374 39.5818 15.346 39.5818C23.8182 39.5818 30.692 37.4171 30.692 34.634V31.3871C27.3351 33.629 21.3405 34.634 15.346 34.634C9.27155 34.634 3.27701 33.629 0 31.3871ZM25.5766 9.89544C34.0489 9.89544 40.9226 7.73081 40.9226 4.94772C40.9226 2.24194 34.0489 0 25.5766 0C17.1044 0 10.2307 2.24194 10.2307 4.94772C10.2307 7.73081 17.1044 9.89544 25.5766 9.89544ZM0 23.2698V27.2125C0 29.9956 6.87374 32.1602 15.346 32.1602C23.8182 32.1602 30.692 29.9956 30.692 27.2125V23.2698C27.3351 25.8982 21.3405 27.2125 15.346 27.2125C9.27155 27.2125 3.27701 25.8982 0 23.2698ZM33.2496 24.1202C37.8055 23.2698 40.9226 21.6463 40.9226 19.7909V16.544C39.0044 17.7809 36.2868 18.6313 33.2496 19.1724V24.1202ZM15.346 12.3693C6.87374 12.3693 0 15.1524 0 18.554C0 22.0328 6.87374 24.7386 15.346 24.7386C23.8182 24.7386 30.692 22.0328 30.692 18.554C30.692 15.1524 23.8182 12.3693 15.346 12.3693ZM32.85 16.7759C37.6456 15.9255 40.9226 14.302 40.9226 12.3693V9.12238C38.0453 11.0551 33.1697 12.0601 28.0543 12.3693C30.3723 13.4516 32.1307 14.9205 32.85 16.7759Z" fill="#03C4A1"/>
<path d="M69.9405 31.6226L74.8361 11.2133H81.39L72.9977 39.3534H66.8833L58.5508 11.2133H65.065L69.9405 31.6226Z" fill="white"/>
<path d="M91.8284 39.3534H86.1534V18.4415H91.8284V39.3534ZM85.894 13.03C85.894 12.1796 86.1736 11.4838 86.7333 10.9426C87.2923 10.4015 88.0384 10.1309 88.9708 10.1309C89.9032 10.1309 90.6492 10.4015 91.2089 10.9426C91.7686 11.4838 92.0482 12.1796 92.0482 13.03C92.0482 13.8675 91.7686 14.5633 91.2089 15.1173C90.6631 15.6713 89.917 15.9483 88.9708 15.9483C88.0252 15.9483 87.2728 15.6713 86.7131 15.1173C86.1666 14.5633 85.894 13.8675 85.894 13.03Z" fill="white"/>
<path d="M108.921 23.7178L107.042 23.5632C105.497 23.5632 104.452 24.2203 103.906 25.5345V39.3534H98.2307V18.4416H103.566L103.726 20.7028C104.618 18.9376 105.851 18.055 107.422 18.055C108.062 18.055 108.581 18.1387 108.981 18.3062L108.921 23.7178Z" fill="white"/>
<path d="M121.457 13.3006V18.4416H124.355V22.5582H121.457V32.9368C121.457 33.7615 121.57 34.3283 121.797 34.6376C122.037 34.9469 122.49 35.1015 123.156 35.1015C123.702 35.1015 124.149 35.0563 124.495 34.9662L124.455 39.2181C123.496 39.566 122.456 39.74 121.337 39.74C117.688 39.74 115.843 37.717 115.803 33.6712V22.5582H113.305V18.4416H115.803V13.3006H121.457Z" fill="white"/>
<path d="M140.148 37.44C138.976 38.9733 137.404 39.7399 135.432 39.7399C133.448 39.7399 131.943 39.0828 130.916 37.7686C129.891 36.4414 129.378 34.5152 129.378 31.9898V18.4416H135.033V32.1251C135.06 34.1609 135.759 35.1787 137.131 35.1787C138.423 35.1787 139.355 34.6376 139.928 33.5553V18.4416H145.623V39.3534H140.308L140.148 37.44Z" fill="white"/>
<path d="M161.976 39.3534C161.816 39.0313 161.657 38.4901 161.497 37.7299C160.485 39.0699 159.112 39.74 157.381 39.74C155.569 39.74 154.064 39.1601 152.865 38.0005C151.679 36.8409 151.086 35.3398 151.086 33.4973C151.086 31.3069 151.806 29.6126 153.245 28.4143C154.696 27.216 156.781 26.604 159.499 26.5782H161.217V24.8968C161.217 23.9562 161.051 23.2926 160.718 22.9061C160.385 22.5196 159.899 22.3263 159.259 22.3263C157.847 22.3263 157.141 23.1251 157.141 24.7228H151.486C151.486 22.7901 152.232 21.1989 153.724 19.9491C155.229 18.6864 157.128 18.055 159.419 18.055C161.79 18.055 163.621 18.6541 164.914 19.8524C166.219 21.0378 166.872 22.7386 166.872 24.9548V34.7922C166.899 36.5961 167.165 38.0069 167.671 39.0248V39.3534H161.976ZM158.64 35.4494C159.266 35.4494 159.799 35.327 160.238 35.0821C160.677 34.8373 161.004 34.5474 161.217 34.2124V29.8638H159.858C158.9 29.8638 158.14 30.1602 157.581 30.7529C157.034 31.3456 156.761 32.1379 156.761 33.1301C156.761 34.6762 157.387 35.4494 158.64 35.4494Z" fill="white"/>
<path d="M178.949 39.3534H173.274V9.66708H178.949V39.3534Z" fill="white"/>
</svg>
